# xmcd
#
# Track frame offsets:
#	150
#	16976
#	28244
#	48641
#	65346
#	77611
#	99149
#	111520
#	133687
#	140995
#	154691
#	185978
#	199874
#	209378
#	227818
#
# Disc length: 3339 seconds
#
# Revision: 1
# Processed by: cddbd v1.5PL3 Copyright (c) Steve Scherf et al.
# Submitted via: audiograbber 1.82.02
#
DISCID=dd0d090f
DTITLE=Six Mile Run Band - Six Mile Run
DYEAR=2004
DGENRE=Bluegrass
TTITLE0=Wires and Wood
TTITLE1=Up Above
TTITLE2=Man of Constant Sorrow
TTITLE3=Mountain Girls - Burrito Breakdown
TTITLE4=Ashes of Love
TTITLE5=Turn The Page
TTITLE6=Solid Rock
TTITLE7=Fox on the Run
TTITLE8=Building on the Rock
TTITLE9=Moonshine Song
TTITLE10=I Know You Rider
TTITLE11=Old Home Place
TTITLE12=Witchita
TTITLE13=Carolina Moon
TTITLE14=Lonesome Fiddle Blues
EXTD=Bazz Blues Productions 2004
EXTT0=
EXTT1=
EXTT2=
EXTT3=
EXTT4=
EXTT5=
EXTT6=
EXTT7=
EXTT8=
EXTT9=
EXTT10=
EXTT11=
EXTT12=
EXTT13=
EXTT14=
PLAYORDER=
